<svg width="396" height="223" xmlns="http://www.w3.org/2000/svg" xmlns:xlink="http://www.w3.org/1999/xlink" xml:space="preserve" overflow="hidden"><defs><linearGradient x1="39.1055" y1="211.388" x2="160.731" y2="89.7624" gradientUnits="userSpaceOnUse" spreadMethod="pad" id="fill0"><stop offset="0" stop-color="#FFFFFF"/><stop offset="0.1713" stop-color="#F2F2F2"/><stop offset="0.7365" stop-color="#E5E5E5"/><stop offset="0.9831" stop-color="#CCCCCC"/><stop offset="1" stop-color="#CCCCCC"/></linearGradient><linearGradient x1="198.572" y1="202.228" x2="334.601" y2="66.1984" gradientUnits="userSpaceOnUse" spreadMethod="pad" id="fill1"><stop offset="0" stop-color="#CCCCCC"/><stop offset="0.0169" stop-color="#CCCCCC"/><stop offset="0.2635" stop-color="#E5E5E5"/><stop offset="0.8287" stop-color="#F2F2F2"/><stop offset="1" stop-color="#FFFFFF"/></linearGradient><linearGradient x1="78.5958" y1="76.2119" x2="78.5958" y2="27.2159" gradientUnits="userSpaceOnUse" spreadMethod="pad" id="fill2"><stop offset="0" stop-color="#E0E0E0"/><stop offset="0.2635" stop-color="#E0E0E0"/><stop offset="0.8287" stop-color="#EDEDED"/><stop offset="1" stop-color="#EDEDED"/></linearGradient><linearGradient x1="122.77" y1="75.2734" x2="122.77" y2="28.1545" gradientUnits="userSpaceOnUse" spreadMethod="pad" id="fill3"><stop offset="0" stop-color="#E0E0E0"/><stop offset="0.2635" stop-color="#E0E0E0"/><stop offset="0.8287" stop-color="#EDEDED"/><stop offset="1" stop-color="#EDEDED"/></linearGradient><linearGradient x1="162.139" y1="76.2119" x2="162.139" y2="38.6074" gradientUnits="userSpaceOnUse" spreadMethod="pad" id="fill4"><stop offset="0" stop-color="#E0E0E0"/><stop offset="0.2635" stop-color="#E0E0E0"/><stop offset="0.8287" stop-color="#EDEDED"/><stop offset="1" stop-color="#EDEDED"/></linearGradient><linearGradient x1="192.332" y1="75.2734" x2="192.332" y2="27.5395" gradientUnits="userSpaceOnUse" spreadMethod="pad" id="fill5"><stop offset="0" stop-color="#E0E0E0"/><stop offset="0.2635" stop-color="#E0E0E0"/><stop offset="0.8287" stop-color="#EDEDED"/><stop offset="1" stop-color="#EDEDED"/></linearGradient></defs><g transform="translate(-332 -252)"><path d="M202.025 118.423C201.742 118.412 201.457 118.404 201.171 118.404 194.772 118.404 188.866 121.32 184.968 126.404 182.675 129.395 181.258 132.841 180.806 136.467 181.51 143.149 179.391 149.988 174.52 155.24 166.257 164.147 153.218 165.757 143.112 159.002 139.223 156.403 130.255 148.511 124.062 143.479 127.934 137.929 131.78 132.358 135.619 126.783 136.108 126.098 136.589 125.407 137.079 124.723 141.166 119.015 147.116 115.736 153.348 114.882 156.202 109.251 160.018 104.185 164.724 99.792 167.757 96.9612 171.069 94.5202 174.59 92.4892 154.421 84.6419 130.47 90.5541 116.877 109.262 116.76 109.423 116.645 109.585 116.529 109.746 115.708 110.645 114.934 111.604 114.226 112.633 112.158 115.634 110.086 118.633 108.014 121.629 101.795 130.395 95.6588 139.22 89.5378 148.058 88.455 149.587 87.3768 151.12 86.2909 152.647 80.3895 160.937 72.1602 164.461 62.0962 162.685 52.3865 160.971 46.0597 154.984 43.1222 145.682 40.0811 136.046 43.8075 125.493 51.992 119.443 60.2322 113.353 71.43 113.072 79.9471 118.846 84.9265 122.222 89.8131 125.738 94.9193 129.316 99.8028 122.319 104.576 115.479 109.469 108.472 97.498 100.115 86.4858 90.6577 71.1562 89.3537 50.7189 87.6165 31.1974 98.256 21.8357 116.712 12.6643 134.792 15.6219 156.729 29.2916 172.025 50.0167 195.214 86.8972 194.309 105.46 169.408 106.795 167.616 108.113 165.811 109.432 164.009 120.404 172.224 136.017 185.876 147.751 187.899 169.401 191.632 191.27 180.921 201.066 161.483 208.075 147.556 208.152 131.84 202.025 118.423Z" fill="url(#fill0)" transform="matrix(1 0 0 1.00112 332 252)"/><path d="M353.376 127.02C348.867 127.04 344.356 127.054 339.845 127.062 338.97 123.523 337.692 120.048 335.997 116.706 326.635 98.2498 307.113 87.6104 286.676 89.3475 271.348 90.65 260.334 100.109 248.363 108.465 253.254 115.473 258.03 122.313 262.913 129.309 262.922 129.303 262.933 129.296 262.942 129.289 272.216 142.145 286.809 151.747 301.761 152.239 305.025 152.346 308.289 152.431 311.555 152.497 308.074 157.908 302.807 161.433 295.735 162.68 285.671 164.456 277.441 160.932 271.54 152.643 270.453 151.116 269.374 149.583 268.292 148.053 262.171 139.216 256.034 130.391 249.816 121.625 247.743 118.628 245.672 115.629 243.605 112.63 242.896 111.601 242.123 110.642 241.302 109.743 241.186 109.582 241.07 109.42 240.954 109.259 238.978 106.539 236.78 104.092 234.41 101.916 236.443 100.027 238.342 97.9203 240.083 95.5876 255.387 75.0575 269.583 53.7013 284.263 32.704 284.421 32.4782 284.469 32.1765 284.563 31.9229 273.628 23.545 257.123 26.812 248.85 38.8142 239.62 52.2086 230.348 65.5767 220.915 78.8288 216.527 84.993 210.848 88.5122 204.088 89.1866 191.064 88.4503 177.69 92.8202 167.285 102.532 151.472 117.29 146.996 139.916 155.811 159.463 156.091 159.475 156.37 159.481 156.65 159.481 162.396 159.481 167.785 157.085 171.822 152.732 174.678 149.654 176.481 145.816 177.055 141.763 176.339 135.693 177.965 129.368 181.99 124.118 191.82 111.296 211.281 111.494 220.751 124.718 221.242 125.404 221.724 126.094 222.213 126.78 226.053 132.355 229.897 137.926 233.768 143.476 227.575 148.508 218.606 156.4 214.719 158.999 211.509 161.144 208.002 162.445 204.447 162.937 204.415 163.002 204.384 163.068 204.35 163.133 199.901 171.963 193.005 179.362 184.408 184.531 184.012 184.77 183.613 185 183.212 185.227 191.573 188.448 200.848 189.486 210.084 187.894 221.947 185.848 237.365 172.328 248.352 164.147 248.482 164.332 248.612 164.518 248.742 164.704 249.649 165.995 250.617 167.273 251.675 168.453 251.91 168.769 252.139 169.089 252.374 169.403 270.937 194.305 307.817 195.209 328.542 172.02 333.632 166.325 337.234 159.709 339.281 152.714 352.391 152.695 365.505 152.571 378.613 152.602 378.888 152.602 379.164 152.469 379.427 152.403 380.059 138.642 367.952 126.957 353.376 127.02ZM283.72 115.948C291.1 113.462 299.378 114.665 305.839 119.44 308.634 121.507 310.909 124.098 312.572 127 309.907 126.981 307.24 126.964 304.575 126.935 296.856 126.85 288.396 121.595 283.72 115.948Z" fill="url(#fill1)" transform="matrix(1 0 0 1.00112 332 252)"/><path d="M101.702 42.1353 90.4411 42.1353C89.1031 40.3224 87.5129 38.9642 85.6675 38.0578 83.8236 37.1513 81.7245 36.6981 79.3732 36.6981 77.4737 36.6981 75.6731 37.0538 73.9685 37.7654 72.2638 38.477 70.7541 39.5134 69.4377 40.8715 68.0347 42.2962 66.9503 43.9405 66.1846 45.8061 65.4189 47.6731 65.0353 49.5866 65.0353 51.5496 65.0353 55.8654 66.4213 59.4835 69.1933 62.4071 71.9653 65.3307 75.3576 66.7925 79.3717 66.7925 81.6796 66.7925 83.7571 66.3609 85.601 65.4978 87.4448 64.6346 88.9391 63.3832 90.0823 61.7435L101.376 61.7435C99.1748 66.5543 96.2404 70.1693 92.5727 72.5856 88.9051 75.0018 84.5259 76.2099 79.4336 76.2099 75.8959 76.2099 72.632 75.5308 69.6434 74.1711 66.6548 72.8114 63.9741 70.7943 61.6012 68.1197 59.5949 65.8984 58.0743 63.3677 57.0379 60.5308 56.0031 57.6938 55.4849 54.6573 55.4849 51.4212 55.4849 48.1418 56.1098 45.0295 57.3612 42.0843 58.6126 39.139 60.4457 36.4583 62.8635 34.0421 65.1497 31.7991 67.6912 30.0991 70.4849 28.9451 73.2786 27.7912 76.2826 27.2142 79.497 27.2142 84.6527 27.2142 89.0598 28.4439 92.7166 30.9035 96.378 33.3645 99.3728 37.108 101.702 42.1353Z" fill="url(#fill2)" transform="matrix(1 0 0 1.00112 332 252)"/><path d="M115.165 28.1547 115.165 43.7209C116.373 42.1028 117.759 40.9056 119.323 40.129 120.887 39.3525 122.672 38.9642 124.678 38.9642 129.122 38.9642 132.532 40.3286 134.905 43.0573 137.277 45.7875 138.464 49.7181 138.464 54.8537L138.464 75.274 130.179 75.274 130.179 59.5779C130.179 54.7021 129.634 51.3965 128.544 49.6593 127.455 47.9237 125.551 47.0544 122.831 47.0544 120.07 47.0544 118.084 48.0305 116.877 49.9826 115.669 51.9348 115.064 55.2853 115.064 60.0311L115.064 75.274 107.075 75.274 107.075 28.1547 115.165 28.1547Z" fill="url(#fill3)" transform="matrix(1 0 0 1.00112 332 252)"/><path d="M152.123 60.0961C152.403 62.6639 153.422 64.6857 155.181 66.1645 156.94 67.6417 159.211 68.3812 161.993 68.3812 163.848 68.3812 165.516 67.9929 166.993 67.2164 168.47 66.4398 169.641 65.3508 170.504 63.9478L179.436 63.9478C177.926 67.832 175.666 70.8469 172.656 72.9924 169.646 75.1395 166.167 76.213 162.219 76.213 159.565 76.213 157.122 75.7443 154.889 74.8053 152.655 73.8664 150.655 72.4804 148.885 70.6473 147.202 68.8994 145.897 66.8776 144.97 64.5789 144.042 62.2818 143.578 59.9244 143.578 57.5082 143.578 55.027 144.003 52.6912 144.856 50.5024 145.708 48.3135 146.964 46.3444 148.625 44.5964 150.438 42.6767 152.486 41.1979 154.774 40.1631 157.06 39.1282 159.422 38.61 161.862 38.61 164.946 38.61 167.827 39.3107 170.503 40.7137 173.177 42.1168 175.454 44.0906 177.331 46.6367 178.474 48.1681 179.321 49.8836 179.871 51.7816 180.421 53.6797 180.695 55.8592 180.695 58.3187 180.695 58.5136 180.684 58.8106 180.663 59.2082 180.641 59.6073 180.63 59.9043 180.63 60.0976L152.123 60.0976ZM171.767 53.5265C171.055 51.1536 169.862 49.3469 168.19 48.1063 166.518 46.8657 164.41 46.2454 161.863 46.2454 159.662 46.2454 157.688 46.9152 155.94 48.2517 154.192 49.5897 153.017 51.3485 152.414 53.5265L171.767 53.5265Z" fill="url(#fill4)" transform="matrix(1 0 0 1.00112 332 252)"/><path d="M201.442 39.6758 201.442 47.0544 195.486 47.0544 195.486 75.274 187.461 75.274 187.461 47.0544 183.221 47.0544 183.221 39.6758 187.201 39.6758 187.201 38.7044C187.201 34.9501 188.236 32.1518 190.307 30.3064 192.379 28.461 195.517 27.539 199.725 27.539 199.896 27.539 200.172 27.5498 200.551 27.5715 200.928 27.5932 201.225 27.604 201.44 27.604L201.44 35.0475 200.857 35.0475C198.981 35.0475 197.636 35.3554 196.827 35.9695 196.018 36.5836 195.613 37.603 195.613 39.0277L195.613 39.6743 201.442 39.6743Z" fill="url(#fill5)" transform="matrix(1 0 0 1.00112 332 252)"/></g></svg>